<?xml version="1.0" encoding="UTF-8"?><svg id="Layer_1" xmlns="http://www.w3.org/2000/svg" viewBox="0 0 354.33 136.37"><defs><style>.cls-1{fill:#007ac2;}.cls-2{fill:#e03a3e;}</style></defs><path class="cls-1" d="M27.16,115.97h-6.46v20.04h-4.38v-20.04h-6.86v-3.63h18.75l-1.04,3.63Z"/><path class="cls-1" d="M37.39,123.01c-.72-.43-1.47-.54-2.01-.54-1.01,0-2.12.47-3.27,1.51v12.03h-4.31v-16.99h3.63l.5,1.8c1.72-1.54,3.05-2.19,4.7-2.19.79,0,1.72.25,2.37.72l-1.62,3.66Z"/><path class="cls-1" d="M50.53,136.01l-.72-1.51c-1.11,1.01-2.66,1.87-4.92,1.87-3.12,0-5.57-2.12-5.57-5.46,0-3.52,2.77-5.42,7.15-5.57l3.02-.11v-.43c0-2.05-1.47-2.87-3.27-2.87s-3.3.61-4.38,1.26l-1.36-2.69c2.26-1.51,4.38-1.87,6.64-1.87,4.2,0,6.72,1.72,6.72,6.18v6.72c0,2.44.07,3.7.32,4.49h-3.63ZM49.45,128.21l-2.44.07c-2.33.07-3.38.86-3.38,2.3s.97,2.37,2.77,2.37c1.51,0,2.51-.57,3.05-1.08v-3.66Z"/><path class="cls-1" d="M65.54,136.11h-3.12l-7-17.09h4.42l4.24,11.56h.07l4.31-11.56h4.17l-7.07,17.09Z"/><path class="cls-1" d="M77.82,128.64c.07,2.51,2.15,4.27,4.78,4.27,1.62,0,2.95-.4,4.42-1.19l1.04,2.76c-1.9,1.33-4.17,1.87-6.18,1.87-5.93,0-8.44-4.31-8.44-8.87,0-4.85,2.87-8.87,7.72-8.87,4.6,0,7.61,3.48,7.61,8.76v1.26h-10.95ZM81.05,121.86c-2.08,0-3.34,1.87-3.34,3.73h6.61c-.07-1.83-1.08-3.73-3.27-3.73Z"/><path class="cls-1" d="M95.91,136.37c-2.84,0-3.91-1.62-3.91-3.73v-22.05h4.31v20.15c0,1.26.25,1.76,1.15,1.76.29,0,.65-.04,1.26-.18l.54,3.2c-1.26.68-2.37.86-3.34.86Z"/><path class="cls-1" d="M128.81,136.11h-3.27l-3.81-11.56h-.11l-3.81,11.56h-3.27l-6.18-17.09h4.38l3.63,11.49h.11l3.73-11.49h3.27l3.81,11.53h.07l3.59-11.53h4.13l-6.28,17.09Z"/><path class="cls-1" d="M139.87,116.4c-1.51,0-2.66-1.15-2.66-2.62s1.15-2.59,2.66-2.59,2.66,1.15,2.66,2.59-1.15,2.62-2.66,2.62ZM137.71,136.01v-16.99h4.31v16.99h-4.31Z"/><path class="cls-1" d="M152.29,136.37c-3.02,0-4.2-1.69-4.2-3.99v-10.13h-3.02v-3.23h3.02v-3.91l4.31-1.29v5.21h5.28l-1.26,3.23h-4.02v8.55c0,1.33.5,1.94,1.62,1.94s2.19-.5,2.84-.93l1.15,2.73c-1.76,1.26-4.06,1.83-5.71,1.83Z"/><path class="cls-1" d="M171.4,136.01v-9.91c0-1.9-.29-3.7-2.59-3.7-1.47,0-2.98.83-4.13,1.79v11.82h-4.31v-25.43h4.31v10.27c1.58-1.29,3.45-2.23,5.64-2.23,2.62,0,5.42,1.26,5.42,6.25v11.13h-4.35Z"/><path class="cls-1" d="M195.78,136.37c-5.53,0-8.37-3.99-8.37-8.76,0-5.17,3.74-8.98,8.8-8.98,2.3,0,3.88.58,4.85,1.19l-.07,3.52c-1.19-.9-2.51-1.4-4.27-1.4-2.91,0-4.99,2.3-4.99,5.46,0,2.91,1.58,5.49,4.96,5.49,1.62,0,2.84-.5,4.02-1.19l1.08,2.84c-1.36.93-3.66,1.83-6,1.83Z"/><path class="cls-1" d="M218.05,133.92c-1.51,1.54-3.59,2.44-6.14,2.44-2.37,0-4.38-.75-5.85-2.12-1.69-1.58-2.62-3.91-2.62-6.64s.9-4.96,2.48-6.57c1.51-1.51,3.56-2.41,6.03-2.41,2.62,0,4.74.9,6.25,2.44,1.47,1.58,2.26,3.81,2.26,6.39s-.83,4.88-2.41,6.46ZM211.87,122.04c-2.73,0-4.06,2.3-4.06,5.46s1.54,5.53,4.17,5.53,4.06-2.33,4.06-5.53-1.51-5.46-4.17-5.46Z"/><path class="cls-1" d="M234.85,136.01v-9.98c0-1.76-.32-3.7-2.51-3.7-1.51,0-2.98.79-4.31,1.79v11.89h-4.31v-16.99h3.66l.47,1.83c1.83-1.36,3.66-2.23,5.96-2.23,2.59,0,5.35,1.55,5.35,6.11v11.28h-4.31Z"/><path class="cls-1" d="M252.92,114.5c-.68-.29-1.44-.47-2.15-.47-1.36,0-2.01.83-2.01,2.3v2.69h4.49l-1.11,3.3h-3.38v13.68h-4.31v-13.68h-2.48v-3.3h2.48v-2.37c0-5.03,3.63-6.07,6-6.07.9,0,2.23.22,3.34.75l-.86,3.16Z"/><path class="cls-1" d="M258.33,116.4c-1.51,0-2.66-1.15-2.66-2.62s1.15-2.59,2.66-2.59,2.66,1.15,2.66,2.59-1.15,2.62-2.66,2.62ZM256.18,136.01v-16.99h4.31v16.99h-4.31Z"/><path class="cls-1" d="M273.49,136.37c-5.06,0-9.23-2.98-9.23-8.73,0-5.28,3.91-9.01,9.41-9.01.86,0,1.54.04,2.15.14v-8.19h4.31v24.42c-1.62.83-3.74,1.36-6.64,1.36ZM275.82,122.29c-.57-.14-1.08-.25-2.01-.25-3.05,0-5.24,2.05-5.24,5.39,0,3.09,2.01,5.39,5.31,5.39.68,0,1.44-.11,1.94-.25v-10.27Z"/><path class="cls-1" d="M287.67,128.64c.07,2.51,2.15,4.27,4.78,4.27,1.62,0,2.94-.4,4.42-1.19l1.04,2.76c-1.9,1.33-4.17,1.87-6.18,1.87-5.93,0-8.44-4.31-8.44-8.87,0-4.85,2.87-8.87,7.72-8.87,4.6,0,7.61,3.48,7.61,8.76v1.26h-10.95ZM290.91,121.86c-2.08,0-3.34,1.87-3.34,3.73h6.61c-.07-1.83-1.08-3.73-3.27-3.73Z"/><path class="cls-1" d="M312.99,136.01v-9.98c0-1.76-.32-3.7-2.51-3.7-1.51,0-2.98.79-4.31,1.79v11.89h-4.31v-16.99h3.66l.47,1.83c1.83-1.36,3.66-2.23,5.96-2.23,2.59,0,5.35,1.55,5.35,6.11v11.28h-4.31Z"/><path class="cls-1" d="M328.83,136.37c-5.53,0-8.37-3.99-8.37-8.76,0-5.17,3.74-8.98,8.8-8.98,2.3,0,3.88.58,4.85,1.19l-.07,3.52c-1.19-.9-2.51-1.4-4.27-1.4-2.91,0-4.99,2.3-4.99,5.46,0,2.91,1.58,5.49,4.96,5.49,1.62,0,2.84-.5,4.02-1.19l1.08,2.84c-1.36.93-3.66,1.83-6,1.83Z"/><path class="cls-1" d="M340.86,128.64c.07,2.51,2.15,4.27,4.78,4.27,1.62,0,2.94-.4,4.42-1.19l1.04,2.76c-1.9,1.33-4.17,1.87-6.18,1.87-5.93,0-8.44-4.31-8.44-8.87,0-4.85,2.87-8.87,7.72-8.87,4.6,0,7.61,3.48,7.61,8.76v1.26h-10.95ZM344.09,121.86c-2.08,0-3.34,1.87-3.34,3.73h6.61c-.07-1.83-1.08-3.73-3.27-3.73Z"/><path class="cls-1" d="M203.68,90.68h-25.33V10.85h24.95c16.12,0,23.51,11.03,23.51,20.72,0,7.64-3.16,12.72-9.57,16.6v.24c9.22,2.05,14.77,8.48,14.77,18.17,0,11.39-8.24,24.1-28.33,24.1ZM201.25,23.22h-8.24v20.83h7.74c6.56,0,11.4-4.23,11.4-10.91,0-5.69-3.87-9.92-10.9-9.92ZM204.03,56.28h-11.02v22.05h9.33c9.81,0,14.65-4.38,14.65-11.63,0-6.19-4.73-10.42-12.96-10.42Z"/><path class="cls-1" d="M290.81,23.09h-21.26v67.59h-14.78V23.09h-23.13v-12.24h63.94l-4.76,12.24Z"/><path class="cls-1" d="M156.05,90.68l-7.89-20.01h-28.49l-7.4,20.01h-14.67l30.89-79.85h10.98l31.99,79.85h-15.41ZM137.13,40.35c-1.47-3.99-2.43-7.27-3.03-9.93h-.13c-.47,2.78-1.56,5.93-2.9,9.7l-6.92,18.6h19.43l-6.45-18.37Z"/><path class="cls-1" d="M338.92,90.68l-7.88-20.01h-28.5l-7.39,20.01h-14.68l30.88-79.85h10.99l31.98,79.85h-15.41ZM320.01,40.35c-1.47-3.99-2.43-7.27-3.03-9.93h-.13c-.47,2.78-1.57,5.93-2.91,9.7l-6.92,18.6h19.43l-6.44-18.37Z"/><path class="cls-1" d="M48.25,0c-1.53,0-3.03.08-4.52.21v7.77h0v85.25h0v3.04c1.49.14,2.99.22,4.52.22,26.65,0,48.24-21.6,48.24-48.25S74.9,0,48.25,0ZM65.89,52.64c-.2,3.08-.59,6.09-1.2,9h-11.3v-9h12.5ZM53.39,43.63v-9.01h11.25c.61,2.91,1.03,5.93,1.23,9.01h-12.48ZM75.37,52.64h11.32c-.36,3.13-1.06,6.15-2.12,9h-10.41c.6-2.92,1.01-5.92,1.21-9ZM75.37,43.63c-.22-3.08-.64-6.09-1.26-9.01h10.39c1.07,2.85,1.8,5.87,2.17,9.01h-11.3ZM79.64,25.62h-8.15c-1.62-4.35-3.69-8.41-6.14-12.1,5.69,2.81,10.59,6.98,14.29,12.1ZM62.05,25.62h-8.66v-15.72c3.58,4.6,6.51,9.9,8.66,15.72ZM53.39,86.6v-15.94h8.75c-2.15,5.9-5.1,11.28-8.73,15.94h-.02ZM65.44,82.91c2.47-3.73,4.54-7.85,6.16-12.25h8.18c-3.69,5.18-8.61,9.4-14.34,12.25Z"/><path class="cls-1" d="M9.88,19.09C5.48,24.88,2.36,31.71.96,39.15h28.98L9.88,19.09Z"/><path class="cls-1" d="M39.17,29.88V.93c-7.42,1.4-14.24,4.52-20.04,8.92l20.04,20.04Z"/><path class="cls-1" d="M19.14,86.38c5.8,4.4,12.62,7.51,20.04,8.92v-28.96l-20.04,20.04Z"/><path class="cls-1" d="M29.94,57.08H.96c1.4,7.43,4.52,14.25,8.93,20.05l20.05-20.05Z"/><path class="cls-2" d="M39.17,39.15v-3.66L16.08,12.38c-1.29,1.15-2.51,2.37-3.66,3.64l23.12,23.12h3.64Z"/><path class="cls-2" d="M39.17,57.08v3.66l-23.1,23.1c-1.29-1.15-2.51-2.37-3.66-3.65l23.12-23.11h3.64Z"/><path class="cls-2" d="M39.17,43.75H.22c-.14,1.48-.22,2.98-.22,4.49s.08,3.01.22,4.49h38.96v-8.98Z"/></svg>